<?xml version="1.0" encoding="UTF-8"?><svg id="b" xmlns="http://www.w3.org/2000/svg" viewBox="0 0 451.98 295.15"><defs><style>.d{fill:#fff;}.d,.e{stroke-width:0px;}.e{fill:#e5c900;}</style></defs><g id="c"><path class="e" d="m27.51,266.52c-1.41-.32-2.48-.49-3.21-.49-.9,0-1.72.31-2.46.92-.9.75-1.35,1.71-1.35,2.89,0,.92.82,2.68,2.46,5.3,1.64,2.62,2.46,5.02,2.46,7.22,0,3.19-1.21,5.81-3.64,7.85-2.31,1.97-5.17,2.95-8.57,2.95-3.13,0-5.44-.22-6.93-.66-.17-.88-.47-2.31-.89-4.3-.27-1.07-.64-2.49-1.12-4.27,2.1.52,3.52.77,4.24.77,2.85,0,4.27-1.08,4.27-3.24,0-1.57-.57-2.97-1.72-4.21-1.87-1.64-3.74-3.29-5.62-4.96-3.63-3.21-5.44-7.02-5.44-11.43s1.72-8.09,5.16-10.46c3-2.06,6.99-3.09,11.98-3.09,2.83,0,6,.41,9.51,1.23l.86,17.97Z"/><path class="d" d="m68.55,248.49l-.66,18.54c-.19,5.29-.29,13.3-.29,24.02-4.89,1.76-9.88,2.64-14.96,2.64-6.27,0-11.03-1.25-14.3-3.75-2.77-2.12-4.73-5.43-5.87-9.92-.67-2.58-1.3-7.3-1.89-14.16-.57-6.34-.93-12.13-1.06-17.37h18.48c-.1,2.52-.21,6.63-.34,12.32-.06,3.17-.04,7.67.06,13.5.02,4.43.4,7.42,1.15,8.97.78,1.64,2.35,2.46,4.7,2.46.67,0,1.41-.19,2.24-.57,0-3.94-.11-10.19-.34-18.77-.19-4.3-.54-10.27-1.06-17.91h14.16Z"/><path class="d" d="m108.04,265.86c0,5.43-1.73,9.77-5.2,13.02-3.47,3.26-8.07,4.89-13.8,4.89l-.34,8.74h-15.79l-.83-21.35c-.25-5.5-.64-13.06-1.18-22.67,2.98-.59,7.35-.89,13.1-.89,7.01,0,12.63,1.4,16.85,4.21,4.8,3.19,7.19,7.87,7.19,14.04Zm-11.89,4.81c0-2.98-1.77-4.47-5.3-4.47-.42,0-.85.03-1.29.09l-.29,10.03c4.58-.15,6.88-2.03,6.88-5.64Z"/><path class="d" d="m140.05,248.49l-1.23,18.14c-.71-.12-2.24-.32-4.58-.6-1.6-.15-3.36-.25-5.27-.29l-.43,5.47c2.1.06,5.53,0,10.29-.14-.21.71-.54,2.03-1,3.96-.27,1.17-.51,2.51-.72,4.04-.55-.13-1.94-.31-4.16-.52-1.03-.06-2.56-.08-4.59-.06l-.29,6.39c1.43-.02,4.07-.14,7.91-.37.73-.06,1.92-.29,3.58-.69-.15.59-.51,2.02-1.06,4.27-.27,1.17-.59,2.64-.97,4.41h-25.65l-.83-22.47c-.15-5.14-.53-12.32-1.12-21.55h30.12Z"/><path class="d" d="m181,264.97c0,3.52-.98,6.63-2.95,9.34-1.74,2.37-3.92,4.07-6.53,5.1.55.86,1.92,2.66,4.1,5.42,1.09,1.26,2.75,2.92,4.99,4.99-.9.32-2.88,1.15-5.93,2.46-2.14.97-4.16,1.93-6.05,2.87-.55-.69-1.79-2.46-3.7-5.33-.88-1.45-2.17-3.9-3.87-7.34h-.06l-.29,10.03h-16.13c-.21-4.16-.51-11.03-.89-20.6-.17-5.64-.56-13.44-1.18-23.41,5.25-.55,10.05-.83,14.39-.83,16.07,0,24.1,5.77,24.1,17.31Zm-13.01,6.19c0-1.81-.76-3.11-2.29-3.9-1.13-.57-2.54-.82-4.24-.75l-.17,9.8c1.59,0,3-.35,4.24-1.06,1.64-.92,2.46-2.28,2.46-4.1Z"/><path class="e" d="m228.97,248.49c-.27,4.01-.66,11.33-1.17,21.95-.27,6.53-.47,13.89-.6,22.07h-10.37l-.29-13.5-10.12,14.56-10.92-14.44-.29,13.38h-10.32c-.13-4.38-.39-11.77-.77-22.18-.27-6-.75-13.28-1.46-21.84h16.42c.57,1.4,1.56,3.65,2.95,6.76,1.07,2.22,2.53,4.83,4.38,7.85.82-1.3,2.33-3.98,4.53-8.05.78-1.51,1.79-3.7,3.01-6.56h15.02Z"/><path class="d" d="m266.37,292.51h-15.68l-1.06-3.81c-.44.17-1.54.75-3.29,1.75-1.13.73-2.38,1.69-3.75,2.89l-1.63-3.47c-.33-.69-.79-1.65-1.4-2.89l-1.55,5.53h-8.31c1.22-4.72,3.11-12.5,5.67-23.36,1.57-7.26,2.88-14.15,3.93-20.66h17.22c.53,3,2,9.98,4.38,20.95,1.32,5.73,3.14,13.42,5.47,23.07Zm-18.08-9.4c-.33-1.01-.9-2.66-1.72-4.93-.5-1.26-1.25-3-2.26-5.22-.44,1.11-1.13,2.92-2.06,5.44-.52,1.45-1.13,3.43-1.83,5.93.57,0,1.87-.11,3.9-.34,1.22-.17,2.55-.47,3.98-.89Z"/><path class="d" d="m302.65,248.49c-.27,3.86-.64,10.59-1.12,20.2-.29,7.07-.53,15.2-.72,24.39-2.5-1.97-6.31-4.9-11.43-8.8-2.22-1.55-5.52-3.87-9.92-6.96l-.29,15.19h-9.23c-.15-3.88-.51-11.2-1.06-21.95-.48-8.71-.96-16.07-1.46-22.07h14.39l10.66,10.09c0-2.31-.04-4.13-.11-5.45-.06-1.16-.17-2.71-.34-4.64h10.63Z"/><path class="d" d="m340.04,292.51h-15.68l-1.06-3.81c-.44.17-1.54.75-3.29,1.75-1.13.73-2.38,1.69-3.75,2.89l-1.63-3.47c-.33-.69-.79-1.65-1.4-2.89l-1.55,5.53h-8.31c1.22-4.72,3.11-12.5,5.67-23.36,1.57-7.26,2.88-14.15,3.93-20.66h17.22c.53,3,2,9.98,4.38,20.95,1.32,5.73,3.14,13.42,5.47,23.07Zm-18.08-9.4c-.33-1.01-.9-2.66-1.72-4.93-.5-1.26-1.25-3-2.26-5.22-.44,1.11-1.13,2.92-2.06,5.44-.52,1.45-1.13,3.43-1.83,5.93.57,0,1.87-.11,3.9-.34,1.22-.17,2.55-.47,3.98-.89Z"/><path class="d" d="m379.42,273.68c-.19,1.62-.48,4.69-.86,9.2-.19,2.69-.37,5.88-.54,9.57-2.56.74-6.29,1.12-11.21,1.12-7.3,0-13.23-1.64-17.8-4.93-5.39-3.92-8.08-9.74-8.08-17.48s2.36-13.2,7.08-17.37c4.43-3.92,10.27-5.88,17.51-5.88,2.73,0,5.66.21,8.8.63l1.58,18.08c-1.26-.48-3.06-.72-5.39-.72-2.96,0-5.64.91-8.02,2.72-2.67,2.04-4.01,4.64-4.01,7.79,0,2.98,1.14,5.28,3.41,6.91,1.91,1.38,4.12,2.03,6.62,1.95l-.46-5.76c-.11-1.18-.37-3.13-.77-5.85h12.15Z"/><path class="d" d="m411.02,248.49l-1.23,18.14c-.71-.12-2.23-.32-4.58-.6-1.6-.15-3.36-.25-5.27-.29l-.43,5.47c2.1.06,5.53,0,10.29-.14-.21.71-.54,2.03-1,3.96-.27,1.17-.51,2.51-.72,4.04-.55-.13-1.94-.31-4.16-.52-1.03-.06-2.56-.08-4.58-.06l-.29,6.39c1.43-.02,4.07-.14,7.91-.37.73-.06,1.92-.29,3.58-.69-.15.59-.51,2.02-1.06,4.27-.27,1.17-.59,2.64-.97,4.41h-25.65l-.83-22.47c-.15-5.14-.53-12.32-1.12-21.55h30.12Z"/><path class="d" d="m451.98,264.97c0,3.52-.98,6.63-2.95,9.34-1.74,2.37-3.92,4.07-6.53,5.1.55.86,1.92,2.66,4.1,5.42,1.09,1.26,2.75,2.92,4.99,4.99-.9.32-2.88,1.15-5.93,2.46-2.14.97-4.16,1.93-6.05,2.87-.55-.69-1.79-2.46-3.7-5.33-.88-1.45-2.17-3.9-3.87-7.34h-.06l-.29,10.03h-16.13c-.21-4.16-.51-11.03-.89-20.6-.17-5.64-.56-13.44-1.17-23.41,5.25-.55,10.05-.83,14.39-.83,16.07,0,24.1,5.77,24.1,17.31Zm-13.01,6.19c0-1.81-.76-3.11-2.29-3.9-1.13-.57-2.54-.82-4.24-.75l-.17,9.8c1.58,0,3-.35,4.24-1.06,1.64-.92,2.46-2.28,2.46-4.1Z"/><path class="d" d="m199.23,0l66.25,22.15,4.91-8.65c1.78-3.13,3.04-5.06,3.78-5.79s1.61-1.1,2.59-1.1,1.8.34,2.45,1.02c.64.68.96,1.46.96,2.33,0,1.39-1.21,4.12-3.64,8.19l-32.01,54.33,25.43-1.68c7.64-.29,16.52.78,26.66,3.23,10.13,2.45,18.85,6.24,26.14,11.38,7.29,5.14,13.02,11.21,17.18,18.21,4.16,7,6.24,14.71,6.24,23.13,0,15.47-6.48,30.67-19.44,45.6-12.96,14.93-36.03,30.67-69.19,47.22-11.67-4.31-25.23-8.85-40.68-13.62-27.56,12.6-50.21,18.9-67.93,18.9-12.63,0-22.35-2.77-29.15-8.3-6.81-5.53-10.21-11.92-10.21-19.17,0-7.73,4.11-14.81,12.34-21.22,8.22-6.41,20.41-9.62,36.57-9.62,6.36,0,14.24.78,23.63,2.35l11.96-21.05-21.49,1.67c-5.09.1-11.95-.61-20.56-2.13-8.62-1.52-15.69-3.99-21.22-7.42-5.53-3.43-9.67-7.64-12.41-12.63-2.74-4.99-4.11-10.23-4.11-15.71,0-8.71,3.08-16.45,9.25-23.21,3.92-4.31,10.38-8.17,19.39-11.6l-.15-1.76c0-9.11,4.04-19.56,12.13-31.36,8.09-11.8,22.87-26.36,44.34-43.69Zm7.4,202.53c-24.36-8.15-44.33-12.21-59.9-12.19-8.03,0-14.4,1.76-19.1,5.29-3.23,2.35-4.85,5.24-4.85,8.67,0,3.62,1.62,6.51,4.85,8.66,5.09,3.53,12.48,5.29,22.18,5.29,14.88,0,33.82-5.24,56.82-15.72Zm14.74-102.74c-12.75,1.82-25.09,2.73-37.05,2.73-13.32,0-22.76-1.56-28.35-4.7-5.58-3.13-9.74-8.03-12.48-14.69-7.05,4.5-10.57,10.09-10.57,16.74,0,6.07,2.74,11.07,8.22,14.98,7.24,5.09,19.63,7.64,37.16,7.64,8.24,0,18.72-.74,31.44-2.24l11.63-20.47Zm30.77-54.14c-15.34-7.62-27.31-12.73-35.91-15.31-8.6-2.59-16.17-3.89-22.72-3.89-9.19,0-16.66,2.6-22.42,7.78-5.76,5.19-8.65,11.26-8.65,18.21s2.47,12.48,7.42,16.89c4.94,4.41,12.41,6.61,22.4,6.61,6.57,0,21.35-.98,44.34-2.93l15.55-27.36Zm-63.35,124.56c9.23,2.03,16.77,3.91,22.59,5.63,5.83,1.72,16.2,5.17,31.13,10.35,23.69-10.8,35.53-21.25,35.52-31.35,0-3.14-1.38-5.98-4.15-8.53-2.77-2.55-6.29-3.83-10.56-3.83-5.24,0-11.7.46-19.36,1.36-21.35,2.27-35.38,3.41-42.08,3.41l-13.1,22.96Zm28.8-50.5c23.37-2.31,39.6-3.46,48.7-3.46,12.43,0,21.93,2.82,28.49,8.46,6.56,5.64,9.84,12.38,9.84,20.22,0,6.86-3.21,13.53-9.62,20-6.41,6.47-20.18,14.54-41.32,24.2l29.87,7.87c12.85-7.93,22.75-16.5,29.71-25.71,6.96-9.21,10.45-19.35,10.45-30.41,0-7.25-2.19-14.37-6.56-21.38s-11.07-12.59-20.11-16.75c-9.04-4.16-19.45-6.24-31.23-6.24-9.53,0-21.7.9-36.53,2.71l-11.69,20.5Z"/></g></svg>