<?xml version="1.0" encoding="UTF-8"?><svg id="b" xmlns="http://www.w3.org/2000/svg" viewBox="0 0 571.97 153.78"><defs><style>.d{fill:#e6175d;stroke-width:0px;}</style></defs><g id="c"><path class="d" d="m0,153.78c.03-.56.08-1.11.08-1.67,0-49.68,0-99.35,0-149.03,0-.56,0-1.11,0-1.77h128.8v10.29H11.42c-.04.56-.1.99-.1,1.42,0,20.01,0,40.01,0,60.02,0,26.67,0,53.34,0,80.01,0,.24-.02.48-.03.72H0Z"/><path class="d" d="m200.8,153.78c.8-1.42,1.55-2.86,2.4-4.25,19.63-32,39.28-63.98,58.92-95.97,10.69-17.41,21.38-34.81,32.04-52.23.59-.97,1.21-1.37,2.37-1.33,2.72.1,5.44.06,8.15.01.86-.02,1.36.26,1.82,1,10.04,16.31,20.1,32.6,30.16,48.89,7.06,11.44,14.13,22.88,21.19,34.32.25.4.48.82.83,1.41-.57.05-.97.12-1.38.12-3.36,0-6.72-.03-10.08.03-.92.01-1.43-.31-1.91-1.08-13.26-21.3-26.55-42.59-39.83-63.88-1.71-2.74-3.41-5.47-5.27-8.44-29.38,47.25-58.64,94.33-87.9,141.4h-11.52Z"/><path class="d" d="m162.65,153.78c.03-.56.08-1.11.08-1.67,0-49.68,0-99.36,0-149.05v-1.76h11.35c0,.55,0,1.1,0,1.64,0,49.68,0,99.36,0,149.05,0,.6.06,1.19.09,1.79h-11.52Z"/><path class="d" d="m388.4,153.78c-8.2-13.16-16.39-26.31-24.68-39.61.5-.04.84-.08,1.17-.08,3.44,0,6.87.02,10.31-.02.76,0,1.22.2,1.63.87,7.77,12.63,15.57,25.25,23.35,37.87.19.3.3.65.45.97h-12.23Z"/><path class="d" d="m424.94,76.82c0-24.88,0-49.76,0-74.64,0-1.56,0-1.56,1.57-1.56,29.75,0,59.49-.03,89.24.01,10.51.01,20.75,1.62,30.37,6.09,11.43,5.31,19.68,13.59,23.65,25.74,2.2,6.74,2.6,13.67,1.89,20.69-1.13,11.25-5.89,20.68-14.33,28.21-6.59,5.88-14.34,9.6-22.79,11.96-6.96,1.94-14.05,2.87-21.27,2.87-11.51,0-23.03-.01-34.54.02-1.03,0-1.41-.24-1.38-1.32.07-2.59.07-5.19,0-7.79-.03-1.1.38-1.32,1.4-1.32,12.31.03,24.63.18,36.94-.04,10.75-.19,20.97-2.62,29.98-8.82,8.4-5.78,13.5-13.73,14.73-23.88,1.15-9.52-.39-18.54-6.28-26.43-4.71-6.31-11.18-10.13-18.54-12.55-5.76-1.89-11.69-2.93-17.75-2.95-26.7-.08-53.41-.09-80.11-.15-1.22,0-1.55.37-1.55,1.57.03,24,.02,48,.02,72,0,22.36,0,44.72.02,67.08,0,1.15-.33,1.53-1.49,1.5-2.8-.07-5.6-.07-8.39,0-1.11.03-1.39-.33-1.39-1.42.03-24.96.02-49.92.02-74.88Z"/><path class="d" d="m42.57,84.68v-10.3h55.15c.02.39.07.81.07,1.23,0,2.52-.06,5.03.03,7.54.04,1.19-.26,1.56-1.51,1.55-8.59-.06-17.19-.03-25.78-.03-8.83,0-17.67,0-26.5,0-.43,0-.87,0-1.45,0Z"/></g></svg>